<?xml version="1.0" encoding="utf-8"?>
<!-- Generator: Adobe Illustrator 26.3.1, SVG Export Plug-In . SVG Version: 6.00 Build 0)  -->
<svg version="1.1" id="Layer_1" xmlns="http://www.w3.org/2000/svg" xmlns:xlink="http://www.w3.org/1999/xlink" x="0px" y="0px"
	 viewBox="0 0 24 24" style="enable-background:new 0 0 24 24;" xml:space="preserve">
<style type="text/css">
	.st0{fill:#D71920;}
</style>
<g>
	<path class="st0" d="M12,21c-0.3,0-0.5-0.1-0.7-0.3l-7.5-7.4C2.7,12.2,2,10.7,2,9.1C2,7.5,2.6,6,3.7,4.8C4.8,3.7,6.3,3,7.9,3
		c1.5,0,3,0.5,4.1,1.5c0.9-0.8,2-1.3,3.2-1.5c1.6-0.2,3.2,0.2,4.4,1.1c1.3,1,2.1,2.4,2.3,4c0.2,1.6-0.2,3.2-1.1,4.4
		c-0.2,0.2-0.4,0.5-0.6,0.7c0,0,0,0-0.1,0.1l-7.4,7.4C12.5,20.9,12.3,21,12,21z"/>
</g>
</svg>
