<?xml version="1.0" encoding="utf-8"?>
<!-- Generator: Adobe Illustrator 26.3.1, SVG Export Plug-In . SVG Version: 6.00 Build 0)  -->
<svg version="1.1" id="Layer_1" xmlns="http://www.w3.org/2000/svg" xmlns:xlink="http://www.w3.org/1999/xlink" x="0px" y="0px"
	 viewBox="0 0 223 161.2" style="enable-background:new 0 0 223 161.2;" xml:space="preserve">
<style type="text/css">
	.st0{fill:#F26630;}
</style>
<g>
	<g>
		<path class="st0" d="M187.2,95.4c-11.2,4.7-22.5,4.9-33.6,0.7c-10.5-4-18.5-11-23.5-21.3c-3.8-7.8-7.5-15.6-11.4-23.3
			c-2.9-5.6-10.1-6.5-12.8-1.2C99,63.3,92.8,76.7,86,90.7c14.6-1,27.9,0.5,40.3,6.6c6.8,3.4,13.2,7.8,20.1,10.9
			c14,6.3,28.4,6.5,42.8,1.5c3.9-1.4,5.6-0.5,7.2,3.1c3.3,7.3,6.9,14.4,10.7,21.5c2,3.8,1.3,5.5-2.7,7c-30,11.1-58.4,8.3-85.6-8.5
			c-22.1-13.6-43.9-9-58.9,12c-1.1,1.5-3.5,2.8-5.2,2.8c-13,0.2-26,0.1-39,0.1c-3.9,0-4.6-1.6-3-5c11.5-23.1,23-46.2,34.5-69.3
			C56,55.6,65,37.7,73.7,19.7c2-4.1,4.4-6.1,9.1-6c19.5,0.2,39,0.1,58.5,0.1c3.4,0,6.1,0.7,7.8,4.1c12.4,24.9,24.8,49.8,37.2,74.7
			C186.6,93.3,186.8,94.1,187.2,95.4z"/>
	</g>
</g>
</svg>
