<?xml version="1.0" encoding="utf-8"?>
<!-- Generator: Adobe Illustrator 26.3.1, SVG Export Plug-In . SVG Version: 6.00 Build 0)  -->
<svg version="1.1" id="Layer_1" xmlns="http://www.w3.org/2000/svg" xmlns:xlink="http://www.w3.org/1999/xlink" x="0px" y="0px"
	 viewBox="0 0 559.4 161.2" style="enable-background:new 0 0 559.4 161.2;" xml:space="preserve">
<style type="text/css">
	.st0{fill:#F26630;}
	.st1{fill:#FFFFFF;}
</style>
<g>
	<g>
		<path class="st0" d="M187.2,95.4c-11.2,4.7-22.5,4.9-33.6,0.7c-10.5-4-18.5-11-23.5-21.3c-3.8-7.8-7.5-15.6-11.4-23.3
			c-2.9-5.6-10.1-6.5-12.8-1.2C99,63.3,92.8,76.7,86,90.7c14.6-1,27.9,0.5,40.3,6.6c6.8,3.4,13.2,7.8,20.1,10.9
			c14,6.3,28.4,6.5,42.8,1.5c3.9-1.4,5.6-0.5,7.2,3.1c3.3,7.3,6.9,14.4,10.7,21.5c2,3.8,1.3,5.5-2.7,7c-30,11.1-58.4,8.3-85.6-8.5
			c-22.1-13.6-43.9-9-58.9,12c-1.1,1.5-3.5,2.8-5.2,2.8c-13,0.2-26,0.1-39,0.1c-3.9,0-4.6-1.6-3-5c11.5-23.1,23-46.2,34.5-69.3
			C56,55.6,65,37.7,73.7,19.7c2-4.1,4.4-6.1,9.1-6c19.5,0.2,39,0.1,58.5,0.1c3.4,0,6.1,0.7,7.8,4.1c12.4,24.9,24.8,49.8,37.2,74.7
			C186.6,93.3,186.8,94.1,187.2,95.4z"/>
	</g>
</g>
<g>
	<g>
		<path class="st1" d="M256.9,69.9v17.9h-18.7v59.9h-17.8V87.8h-18.7V69.9H256.9z"/>
		<path class="st1" d="M318.9,83.8V113c0,5.9-3.7,10.9-8.8,12.9l8.8,21.8h-18.9l-8.4-20.8h-9.9v20.8H264V69.9h41.1
			C312.7,69.9,318.9,76.1,318.9,83.8z M301.2,105.4V91.3c0-2-1.7-3.6-3.7-3.6h-15.8V109h15.8C299.5,109,301.2,107.4,301.2,105.4z"/>
		<path class="st1" d="M382.2,147.6h-17.8l-3.1-11.2h-19.2l-3.1,11.2h-17.8l21.7-77.7h17.7L382.2,147.6z M356.4,118.3l-4.7-16.5
			l-4.5,16.6C347.2,118.3,356.4,118.3,356.4,118.3z"/>
		<path class="st1" d="M417.8,69.9h17.8l-21.7,77.7h-17.8l-21.7-77.7h17.8l12.8,45.8L417.8,69.9z"/>
		<path class="st1" d="M460.4,87.8v12.1h22.3v17.8h-22.3v12.2h31.1v17.8h-48.9V69.9h48.9v17.9H460.4z"/>
		<path class="st1" d="M516.4,129.8h28.7v17.8h-46.4V69.9h17.8L516.4,129.8L516.4,129.8z"/>
	</g>
</g>
</svg>
