<?xml version="1.0" encoding="utf-8"?>
<!-- Generator: Adobe Illustrator 26.0.1, SVG Export Plug-In . SVG Version: 6.00 Build 0)  -->
<svg version="1.1" id="Layer_1" xmlns="http://www.w3.org/2000/svg" xmlns:xlink="http://www.w3.org/1999/xlink" x="0px" y="0px"
	 viewBox="0 0 559.39 161.19" style="enable-background:new 0 0 559.39 161.19;" xml:space="preserve">
<style type="text/css">
	.st0{fill:#F26630;}
	.st1{fill:#051931;}
</style>
<g>
	<g>
		<path class="st0" d="M187.22,95.36c-11.25,4.65-22.5,4.88-33.62,0.65c-10.46-3.98-18.53-11.01-23.5-21.27
			c-3.77-7.79-7.5-15.6-11.45-23.29c-2.88-5.62-10.05-6.47-12.82-1.18c-6.84,13.07-13.07,26.46-19.88,40.43
			c14.57-0.97,27.9,0.46,40.3,6.57c6.84,3.37,13.19,7.77,20.13,10.92c13.97,6.35,28.45,6.49,42.84,1.46
			c3.93-1.37,5.57-0.51,7.19,3.08c3.3,7.27,6.89,14.43,10.67,21.46c2.02,3.76,1.3,5.5-2.71,6.99c-29.97,11.14-58.42,8.31-85.64-8.48
			c-22.11-13.64-43.86-9.01-58.93,12.04c-1.06,1.48-3.45,2.79-5.25,2.82c-12.99,0.24-25.99,0.11-38.98,0.15
			c-3.94,0.01-4.64-1.61-2.96-4.98c11.54-23.07,23.04-46.17,34.52-69.27c8.89-17.88,17.84-35.74,26.53-53.72
			c1.99-4.11,4.42-6.07,9.14-6.02c19.49,0.19,38.99,0.12,58.48,0.05c3.44-0.01,6.09,0.74,7.77,4.12
			c12.36,24.9,24.8,49.77,37.2,74.65C186.61,93.26,186.78,94.08,187.22,95.36z"/>
	</g>
</g>
<g>
	<g>
		<path class="st1" d="M256.86,69.87v17.88H238.2v59.86h-17.77V87.75h-18.66V69.87H256.86z"/>
		<path class="st1" d="M318.94,83.76v29.21c0,5.89-3.67,10.88-8.77,12.88l8.77,21.77h-18.88l-8.44-20.77h-9.88v20.77h-17.77V69.87
			h41.09C312.72,69.87,318.94,76.09,318.94,83.76z M301.17,105.41v-14.1c0-2-1.67-3.55-3.67-3.55h-15.77v21.21h15.77
			C299.51,108.96,301.17,107.41,301.17,105.41z"/>
		<path class="st1" d="M382.24,147.61h-17.77l-3.11-11.22h-19.21l-3.11,11.22h-17.77l21.66-77.74h17.66L382.24,147.61z
			 M356.37,118.29l-4.66-16.55l-4.55,16.55H356.37z"/>
		<path class="st1" d="M417.79,69.87h17.77l-21.66,77.74h-17.77l-21.66-77.74h17.77l12.77,45.75L417.79,69.87z"/>
		<path class="st1" d="M460.43,87.75v12.1h22.32v17.77h-22.32v12.22h31.09v17.77h-48.86V69.87h48.86v17.88H460.43z"/>
		<path class="st1" d="M516.41,129.84h28.65v17.77h-46.42V69.87h17.77V129.84z"/>
	</g>
</g>
</svg>
